# xmcd
#
# Track frame offsets: 
#        150
#        18391
#        35956
#        51951
#        66617
#        84861
#        103626
#        120249
#        137157
#        149766
#        162420
#        179677
#        196630
#        212560
#        228218
#        247792
#        264697
#        281746
#
# Disc length: 4038 seconds
#
# Revision: 0
# Processed by: cddbd v1.5.1PL0 Copyright (c) Steve Scherf et al.
# Submitted via: ExactAudioCopy v0.95a5
#
DISCID=0b0fc412
DTITLE=Boyzone - The Ultimate Love Songs Collection 1993-2001
DYEAR=2001
DGENRE=Ballad
TTITLE0=And I
TTITLE1=Your Song
TTITLE2=Everyday I Love You
TTITLE3=Baby CAn I Hold You
TTITLE4=Words
TTITLE5=Mystical Experience
TTITLE6=All That I Need
TTITLE7=Coming Home Now
TTITLE8=Father And Son
TTITLE9=Ben
TTITLE10=Love Me For A Reason
TTITLE11=Isn't It A Wonder
TTITLE12=Paradise
TTITLE13=You Needed Me
TTITLE14=Don't Stop Looking For Love
TTITLE15=Key to My Life
TTITLE16=I Love the Way You Love Me
TTITLE17=No Matter What
EXTD=
EXTT0=And I
EXTT1=
EXTT2=
EXTT3=
EXTT4=
EXTT5=
EXTT6=
EXTT7=
EXTT8=
EXTT9=
EXTT10=
EXTT11=
EXTT12=
EXTT13=
EXTT14=
EXTT15=
EXTT16=
EXTT17=
PLAYORDER=
